# xmcd CD database file
#
# Track frame offsets:
#	150
#	20962
#	57282
#	81970
#	117580
#	147255
#	175342
#	196470
#	225382
#	241925
#	266030
#
# Disc length: 4030 seconds
#
# Revision: 1
# Processed by: cddbd v1.5.1PL0 Copyright (c) Steve Scherf et al.
# Submitted via: CDex 1.51
#
DISCID=9e0fbc0b
DTITLE=Dave Specter And The Bluebirds featuring Tad Robinson - Live In Europe
DYEAR=1995
DGENRE=Blues
TTITLE0=West Side Stroll
TTITLE1=Little By Little
TTITLE2=Bad Boy
TTITLE3=Bluebird Blues
TTITLE4=It's Too Late Brother
TTITLE5=Kidney Stew
TTITLE6=Wag's Blues
TTITLE7=Dose Of Reality
TTITLE8=I Die A Little Each Day
TTITLE9=Sweet Serenety
TTITLE10=On The Outside Looking In
EXTD=YEAR: 1995
EXTT0=West Side Stroll
EXTT1=
EXTT2=
EXTT3=
EXTT4=
EXTT5=
EXTT6=
EXTT7=
EXTT8=
EXTT9=
EXTT10=
PLAYORDER=
